PathFileType	4	(X/Y/Z)	DARI_DATA/Captury_Subj5_bilateral_squat03.trc
DataRate	CameraRate	NumFrames	NumMarkers	Units	OrigDataRate	OrigDataStartFrame	OrigNumFrames
60	60	4	47	mm	59.99879837036133	148	236
Frame#	Time		LeftUpLeg_		RightUpLeg_		LeftLeg_		RightLeg_		LeftFoot_		RightFoot_		LeftToeBase_		RightToeBase_		Knee_Lateral_r		Knee_Lateral_l		Ankle_Lateral_r		Ankle_Lateral_l		LeftArm_		LeftForeArm_		LeftHand_		LeftHandEE		RightArm_		RightForeArm_		RightHand_		RightHandEE		Spine_		Spine1_		Spine2_		Spine3_		Spine4_		Spine5_		Spine_x		Spine_y		Spine_z		RASI		LASI		RIPS		LIPS		RTHI		LTHI		RTIB		LTIB		RTOE		LTOE		RHEE		LHEE		RHipAngles		LHipAngles		RKneeAngles		LKneeAngles		RAnkleAngles		LAnkleAngles
			X1	Y1	Z1	X2	Y2	Z2	X3	Y3	Z3	X4	Y4	Z4	X5	Y5	Z5	X6	Y6	Z6	X7	Y7	Z7	X8	Y8	Z8	X9	Y9	Z9	X10	Y10	Z10	X11	Y11	Z11	X12	Y12	Z12	X13	Y13	Z13	X14	Y14	Z14	X15	Y15	Z15	X16	Y16	Z16	X17	Y17	Z17	X18	Y18	Z18	X19	Y19	Z19	X20	Y20	Z20	X21	Y21	Z21	X22	Y22	Z22	X23	Y23	Z23	X24	Y24	Z24	X25	Y25	Z25	X26	Y26	Z26	X27	Y27	Z27	X28	Y28	Z28	X29	Y29	Z29	X30	Y30	Z30	X31	Y31	Z31	X32	Y32	Z32	X33	Y33	Z33	X34	Y34	Z34	X35	Y35	Z35	X36	Y36	Z36	X37	Y37	Z37	X38	Y38	Z38	X39	Y39	Z39	X40	Y40	Z40	X41	Y41	Z41	X42	Y42	Z42	X43	Y43	Z43	X44	Y44	Z44	X45	Y45	Z45	X46	Y46	Z46	X47	Y47	Z47

148	2.45000	-95.98319	850.99451	222.78696	95.21758	843.56409	215.59607	-179.30138	499.45151	-71.75903	151.92654	509.68393	-104.70050	-179.34244	92.87781	71.19635	183.16704	107.21033	46.22137	-213.08295	34.02712	-57.81560	198.73010	34.76521	-79.29919	205.28894	511.89038	-101.52073	-231.85861	499.91180	-61.75652	235.24927	112.89570	70.45308	-227.98572	94.71617	102.22066	-155.71806	1396.96387	41.29448	-242.39569	1432.92114	-281.70154	-245.25833	1457.76709	-569.74017	-244.58525	1451.57886	-675.07166	154.22943	1388.73193	32.43771	248.29507	1395.57629	-290.42010	233.12108	1438.41406	-575.94843	223.56274	1447.34827	-680.64935	2.34573	949.27917	186.34380	2.98555	1039.94885	133.33510	3.79804	1114.06079	127.46284	4.34431	1208.44629	150.72322	2.14798	1352.05432	130.80345	1663134.00000	0.00000	1663136.00000	55.96946	947.19525	184.32706	3.18094	996.14075	160.12906	5.12284	975.42432	233.16937	156.05072	852.16223	83.64104	-165.69165	864.66571	95.74147	46.40985	935.18219	228.55460	-39.38812	938.51648	231.78137	196.10065	690.28436	74.69408	-207.60699	687.24823	103.40220	210.11653	325.97858	-50.24075	-222.31860	250.44536	0.34843	207.38707	6.80658	-156.08591	-230.36711	11.88686	-135.04184	180.54436	41.81989	111.18062	-185.22885	23.20961	131.31442	-72.26611	7.14957	0.93158	-69.26411	4.23225	7.68337	-58.37327	0.03053	-0.06413	-54.15578	0.00007	-0.01188	-6.01471	1.98944	0.30267	-10.43984	-0.85229	11.98730
149	2.46667	-96.07442	860.29309	216.76501	95.15694	853.41040	209.84795	-177.53130	501.29285	-69.18134	151.34782	511.31161	-101.74904	-179.52705	93.83685	71.22475	183.42023	107.74332	46.04236	-213.03883	34.04685	-57.41438	198.46899	35.03452	-79.38842	204.71480	513.57336	-98.68730	-230.13440	501.92319	-59.43253	235.54742	113.51057	70.15770	-228.31671	95.92996	102.00206	-155.44911	1411.10413	44.45464	-243.36763	1445.31750	-278.39539	-246.54704	1468.75989	-566.54828	-246.16768	1462.38440	-671.87006	154.51862	1403.25598	36.99407	248.86063	1408.02478	-285.82047	232.54428	1448.42480	-571.64099	223.03282	1457.21570	-676.35834	2.19796	959.96918	184.14963	2.84748	1052.28174	133.33258	3.61448	1126.83899	128.77571	4.06416	1221.28918	153.14987	1.98170	1365.40381	134.33768	1663134.00000	0.00000	1663136.00000	55.83027	958.03888	182.20969	3.03074	1007.74292	159.63661	4.80485	984.42023	231.89125	156.33867	866.83142	78.45773	-165.45518	878.41321	90.09737	46.16827	944.43134	225.95045	-39.64342	947.51978	229.05435	195.80905	696.47986	72.85390	-206.91199	693.40894	101.04924	209.88251	327.26776	-48.82344	-221.66905	251.97650	1.15491	206.86758	6.98675	-156.17133	-230.18248	11.37239	-134.51685	180.70316	42.47107	111.11647	-185.51103	24.60670	131.83714	-68.71972	6.90610	1.02970	-65.76160	4.18500	7.42110	-56.44999	0.01173	-0.06227	-52.33236	-0.07143	-0.03057	-5.46144	1.94935	0.06905	-9.64392	-0.68810	11.93846
150	2.48333	-96.17154	869.24377	211.74982	95.08701	862.64264	205.32767	-175.74455	503.53903	-66.11691	150.78539	513.34296	-98.26599	-179.79410	94.95511	70.92747	183.71834	108.52274	45.86717	-213.06693	34.33501	-57.38478	198.25322	35.65331	-79.53101	204.15659	515.64594	-95.31040	-228.38794	504.28433	-56.59628	235.88580	114.35871	69.87873	-228.71533	97.29128	101.47762	-155.11122	1425.14087	47.54262	-244.34404	1457.22485	-275.16541	-247.67261	1479.50134	-563.40906	-247.08418	1473.46790	-668.75000	154.92880	1417.74817	41.50608	249.18477	1420.01074	-281.36090	232.39357	1457.89331	-567.49847	221.95111	1467.31555	-672.07208	2.10819	969.50946	181.01805	2.85993	1063.22290	131.50232	3.60815	1138.46313	128.02995	3.94424	1233.13696	153.87581	1.93234	1378.16541	137.38231	1663134.00000	0.00000	1663136.00000	55.74812	967.65808	179.21692	2.97258	1017.66418	157.26324	4.54221	993.20776	229.14682	156.66769	878.18658	74.35849	-165.17188	889.29474	85.16532	45.96191	953.35455	222.70729	-39.86198	956.31671	225.58911	195.51907	702.50592	71.92957	-206.20244	699.48816	99.49265	209.67923	328.91418	-47.10812	-221.06769	253.81110	1.96971	206.40332	7.59594	-156.33719	-230.04332	11.22992	-134.39636	180.84764	43.31393	110.99828	-185.97867	26.13761	131.98805	-66.47491	6.68019	1.01638	-63.52346	4.11458	7.31171	-54.60184	0.01229	-0.05713	-50.50523	-0.08083	-0.03734	-4.88088	1.91273	-0.20604	-8.77598	-0.57446	11.93653
151	2.50000	-96.18562	877.96991	206.30942	95.08609	871.60999	200.03889	-174.19638	505.51184	-62.89514	150.62704	514.97827	-94.93712	-180.00742	95.70389	70.37910	183.96471	109.04288	45.92952	-213.01730	34.32870	-57.64182	198.06383	35.91339	-79.36698	203.99940	517.33539	-92.04617	-226.87305	506.39429	-53.57243	236.15324	114.92607	69.88364	-229.03180	98.24357	100.74712	-154.88428	1438.49463	50.58228	-245.24083	1468.89575	-271.97601	-248.31924	1490.05249	-560.30688	-247.66960	1484.38635	-665.66791	155.23758	1431.30530	45.53300	249.65253	1431.68958	-277.29526	232.47087	1467.72961	-563.64758	220.37915	1476.42871	-668.10614	2.11728	979.12042	178.71135	2.91913	1074.43018	131.06349	3.65404	1150.28857	128.74940	3.92438	1245.22803	155.67731	1.94266	1390.97095	140.43333	1663134.00000	0.00000	1663136.00000	55.76091	977.33673	176.95273	3.00893	1027.95215	156.38243	4.45804	1001.39587	227.51955	156.89536	891.00934	69.69317	-164.96640	901.71136	80.24487	45.90164	961.75970	219.98672	-39.92816	964.61359	222.80052	195.44682	708.22888	70.57933	-205.54776	705.35498	97.82228	209.68622	330.18063	-45.32428	-220.53867	255.31331	2.73338	206.02403	7.77389	-156.16302	-229.81335	10.81792	-134.57013	180.83786	43.94849	111.16321	-186.41711	27.26985	131.84607	-63.39087	6.57032	1.09857	-60.44564	4.01289	7.14395	-52.74503	-0.04175	-0.05614	-48.57487	-0.14682	-0.03629	-4.31172	1.87739	-0.47319	-7.88951	-0.52335	11.96883
